<svg xmlns="http://www.w3.org/2000/svg" viewBox="-0.5 -0.5 25 25" fill="#64748b">
  <path d="M21.327 8.566c0-4.339-2.843-5.61-2.843-5.61-1.357-.658-3.666-.712-4.95-.712-.52 0-1.003.024-1.448.068V3.026a2.484 2.484 0 0 0-2.45-2.483 2.41 2.41 0 0 0-1.876.955 2.41 2.41 0 0 0-1.877-.955A2.484 2.484 0 0 0 6.35 3.026v.382c-.445-.044-.928-.068-1.448-.068-1.284 0-3.593.054-4.95.712 0 0-2.843 1.272-2.843 5.61 0 0 0 0 2.654c-.182 1.044-1.332 1.525-1.332 1.525l.006.015s.244.544 1.009.912c.766.368 1.826.547 2.936.547.576 0 1.134-.068 1.652-.19.136-.032.265-.068.39-.11v3.62a.49.49 0 0 0 .316.455c.164.067.344.1.523.1.164 0 .328-.033.477-.1V9.92c.126.042.254.078.39.11.518.121 1.076.19 1.652.19 1.11 0 2.17-.18 2.936-.547.765-.368 1.009-.912 1.009-.912l.006-.015s-1.15-.481-1.332-1.525c0-2.654 0-2.654 0-2.654zm-3.816 2.089v3.254s-.606.258-2.354.258c-1.748 0-2.354-.258-2.354-.258v-3.254s.606-.258 2.354-.258c1.748 0 2.354.258 2.354.258zM8.35 10.773v3.254s-.606.258-2.354.258c-1.748 0-2.354-.258-2.354-.258v-3.254s.606-.258 2.354-.258c1.748 0 2.354.258 2.354.258z"/>
</svg>
